<?xml version="1.0" encoding="UTF-8" standalone="no"?>
<!DOCTYPE svg PUBLIC "-//W3C//DTD SVG 1.1//EN" "http://www.w3.org/Graphics/SVG/1.1/DTD/svg11.dtd">
<svg width="100%" height="100%" viewBox="0 0 562 134" version="1.1" xmlns="http://www.w3.org/2000/svg" xmlns:xlink="http://www.w3.org/1999/xlink" xml:space="preserve" xmlns:serif="http://www.serif.com/" style="fill-rule:evenodd;clip-rule:evenodd;stroke-linejoin:round;stroke-miterlimit:2;">
    <g transform="matrix(1,0,0,1,-111.995,-210.027)">
        <g transform="matrix(0.781441,0,0,0.781441,23.608,68.1359)">
            <g transform="matrix(254.071,0,0,254.071,92.0181,349.798)">
                <path d="M0.083,-0.662L0.367,-0.662C0.405,-0.662 0.44,-0.658 0.472,-0.65C0.504,-0.642 0.531,-0.63 0.554,-0.615C0.576,-0.601 0.594,-0.583 0.607,-0.562C0.62,-0.541 0.626,-0.518 0.626,-0.493C0.626,-0.477 0.624,-0.463 0.621,-0.449C0.617,-0.436 0.612,-0.423 0.604,-0.412C0.596,-0.4 0.586,-0.389 0.573,-0.378C0.56,-0.367 0.544,-0.356 0.525,-0.345C0.545,-0.339 0.563,-0.331 0.579,-0.321C0.595,-0.31 0.609,-0.298 0.621,-0.284C0.633,-0.271 0.642,-0.255 0.649,-0.239C0.656,-0.222 0.659,-0.204 0.659,-0.185C0.659,-0.159 0.653,-0.135 0.641,-0.112C0.629,-0.09 0.613,-0.07 0.591,-0.054C0.569,-0.037 0.542,-0.024 0.511,-0.014C0.481,-0.005 0.447,-0 0.409,-0L0.083,-0L0.083,-0.662ZM0.246,-0.375L0.353,-0.375C0.37,-0.375 0.385,-0.378 0.399,-0.383C0.412,-0.388 0.424,-0.396 0.433,-0.406C0.442,-0.415 0.449,-0.427 0.454,-0.44C0.459,-0.453 0.461,-0.468 0.461,-0.483C0.461,-0.501 0.458,-0.516 0.452,-0.531C0.446,-0.545 0.437,-0.557 0.424,-0.568C0.411,-0.578 0.395,-0.586 0.375,-0.592C0.356,-0.597 0.333,-0.6 0.306,-0.6L0.246,-0.6L0.246,-0.375ZM0.246,-0.068L0.335,-0.068C0.362,-0.068 0.385,-0.071 0.404,-0.076C0.423,-0.082 0.439,-0.09 0.451,-0.1C0.464,-0.11 0.473,-0.122 0.479,-0.135C0.485,-0.149 0.488,-0.164 0.488,-0.181C0.488,-0.199 0.486,-0.216 0.48,-0.232C0.474,-0.248 0.465,-0.262 0.453,-0.273C0.44,-0.285 0.424,-0.294 0.404,-0.301C0.383,-0.307 0.358,-0.311 0.329,-0.311L0.246,-0.311L0.246,-0.068Z" style="fill:hsl(45, 100%, 45%);fill-rule:nonzero;"/>
            </g>
            <g transform="matrix(254.071,0,0,254.071,254.862,349.798)">
                <path d="M0.298,0.011C0.262,0.011 0.229,0.005 0.198,-0.009C0.167,-0.022 0.139,-0.039 0.116,-0.062C0.093,-0.084 0.075,-0.11 0.061,-0.139C0.048,-0.169 0.041,-0.2 0.041,-0.233C0.041,-0.272 0.047,-0.309 0.06,-0.343C0.072,-0.376 0.09,-0.405 0.112,-0.43C0.135,-0.455 0.162,-0.474 0.194,-0.488C0.226,-0.502 0.261,-0.509 0.3,-0.509C0.335,-0.509 0.367,-0.503 0.396,-0.492C0.425,-0.481 0.45,-0.466 0.47,-0.447C0.491,-0.428 0.507,-0.405 0.519,-0.379C0.53,-0.353 0.536,-0.325 0.536,-0.295L0.189,-0.295C0.191,-0.268 0.195,-0.241 0.202,-0.216C0.209,-0.191 0.218,-0.169 0.23,-0.15C0.242,-0.131 0.255,-0.116 0.271,-0.105C0.287,-0.094 0.305,-0.088 0.324,-0.088C0.34,-0.088 0.357,-0.091 0.373,-0.096C0.389,-0.102 0.404,-0.11 0.417,-0.12C0.431,-0.13 0.443,-0.141 0.453,-0.155C0.463,-0.168 0.471,-0.182 0.475,-0.197L0.552,-0.185C0.544,-0.158 0.532,-0.133 0.515,-0.109C0.498,-0.085 0.478,-0.064 0.455,-0.046C0.432,-0.028 0.407,-0.014 0.38,-0.004C0.353,0.006 0.326,0.011 0.298,0.011ZM0.362,-0.347C0.361,-0.362 0.357,-0.375 0.352,-0.387C0.347,-0.4 0.341,-0.41 0.333,-0.419C0.325,-0.428 0.316,-0.434 0.306,-0.439C0.295,-0.444 0.284,-0.446 0.272,-0.446C0.263,-0.446 0.253,-0.444 0.244,-0.439C0.235,-0.434 0.227,-0.428 0.219,-0.419C0.212,-0.411 0.206,-0.4 0.201,-0.388C0.196,-0.376 0.193,-0.362 0.191,-0.347L0.362,-0.347Z" style="fill:hsl(45, 100%, 45%);fill-rule:nonzero;"/>
            </g>
            <g transform="matrix(254.071,0,0,254.071,392.02,349.798)">
                <path d="M0.298,0.011C0.262,0.011 0.229,0.005 0.198,-0.009C0.167,-0.022 0.139,-0.039 0.116,-0.062C0.093,-0.084 0.075,-0.11 0.061,-0.139C0.048,-0.169 0.041,-0.2 0.041,-0.233C0.041,-0.272 0.047,-0.309 0.06,-0.343C0.072,-0.376 0.09,-0.405 0.112,-0.43C0.135,-0.455 0.162,-0.474 0.194,-0.488C0.226,-0.502 0.261,-0.509 0.3,-0.509C0.335,-0.509 0.367,-0.503 0.396,-0.492C0.425,-0.481 0.45,-0.466 0.47,-0.447C0.491,-0.428 0.507,-0.405 0.519,-0.379C0.53,-0.353 0.536,-0.325 0.536,-0.295L0.189,-0.295C0.191,-0.268 0.195,-0.241 0.202,-0.216C0.209,-0.191 0.218,-0.169 0.23,-0.15C0.242,-0.131 0.255,-0.116 0.271,-0.105C0.287,-0.094 0.305,-0.088 0.324,-0.088C0.34,-0.088 0.357,-0.091 0.373,-0.096C0.389,-0.102 0.404,-0.11 0.417,-0.12C0.431,-0.13 0.443,-0.141 0.453,-0.155C0.463,-0.168 0.471,-0.182 0.475,-0.197L0.552,-0.185C0.544,-0.158 0.532,-0.133 0.515,-0.109C0.498,-0.085 0.478,-0.064 0.455,-0.046C0.432,-0.028 0.407,-0.014 0.38,-0.004C0.353,0.006 0.326,0.011 0.298,0.011ZM0.362,-0.347C0.361,-0.362 0.357,-0.375 0.352,-0.387C0.347,-0.4 0.341,-0.41 0.333,-0.419C0.325,-0.428 0.316,-0.434 0.306,-0.439C0.295,-0.444 0.284,-0.446 0.272,-0.446C0.263,-0.446 0.253,-0.444 0.244,-0.439C0.235,-0.434 0.227,-0.428 0.219,-0.419C0.212,-0.411 0.206,-0.4 0.201,-0.388C0.196,-0.376 0.193,-0.362 0.191,-0.347L0.362,-0.347Z" style="fill:hsl(45, 100%, 45%);fill-rule:nonzero;"/>
            </g>
            <g transform="matrix(254.071,0,0,254.071,498.691,349.798)">
                <path d="M0.645,-0.662L0.645,-0.605L0.416,-0.605L0.416,-0L0.253,-0L0.253,-0.605L0.024,-0.605L0.024,-0.662L0.645,-0.662Z" style="fill:hsl(45, 100%, 45%);fill-rule:nonzero;"/>
            </g>
            <g transform="matrix(254.071,0,0,254.071,653.158,349.798)">
                <path d="M0.175,-0.662L0.394,-0.205L0.597,-0.662L0.701,-0.662L0.403,0.01L0.327,0.01L0.007,-0.662L0.175,-0.662Z" style="fill:hsl(45, 100%, 45%);fill-rule:nonzero;"/>
            </g>
        </g>
    </g>
</svg>
